<svg width="30" height="29" viewBox="0 0 30 29" fill="none" xmlns="http://www.w3.org/2000/svg">
<path fill-rule="evenodd" clip-rule="evenodd" d="M3.33245 3.22136H26.6676V14.5C26.6651 17.444 25.468 20.2696 23.3335 22.3695V6.44427H13.3335V19.051C11.4042 18.3777 9.99894 16.5769 9.99894 14.5V6.44427H6.66649V14.5C6.66649 18.9476 10.4603 22.5557 15 22.5557C15.5596 22.5559 16.1179 22.501 16.666 22.3916V9.66667H20.0021V28.1662C25.8114 26.1649 30 20.7828 30 14.5V0H0V14.5C0 22.4724 6.74949 29 15 29C15.5566 28.9997 16.1128 28.9696 16.666 28.91V25.6614C16.1145 25.7392 15.5579 25.7784 15.0005 25.7786C8.58997 25.7786 3.33298 20.6969 3.33298 14.5L3.33245 3.22136Z" fill="url(#paint0_linear_22_118)"/>
<defs>
<linearGradient id="paint0_linear_22_118" x1="27.7966" y1="22.6108" x2="3.07017" y2="-2.96834" gradientUnits="userSpaceOnUse">
<stop stop-color="#9A37EC"/>
<stop offset="1" stop-color="#6929D7"/>
</linearGradient>
</defs>
</svg>
