<svg width="24" height="24" viewBox="0 0 24 24" fill="none" xmlns="http://www.w3.org/2000/svg">
<path fill-rule="evenodd" clip-rule="evenodd" d="M5.00388 5.63176C5.4834 5.35775 6.09425 5.52435 6.36826 6.00386L8.36826 9.50386C8.64227 9.98338 8.47567 10.5942 7.99616 10.8682C7.51664 11.1423 6.90579 10.9757 6.63178 10.4961L4.63178 6.99614C4.35777 6.51662 4.52436 5.90577 5.00388 5.63176Z" fill="#9F9F9F"/>
<path fill-rule="evenodd" clip-rule="evenodd" d="M18.9961 5.63176C18.5166 5.35775 17.9058 5.52435 17.6318 6.00386L15.6318 9.50386C15.3577 9.98338 15.5243 10.5942 16.0039 10.8682C16.4834 11.1423 17.0942 10.9757 17.3682 10.4961L19.3682 6.99614C19.6422 6.51662 19.4757 5.90577 18.9961 5.63176Z" fill="#9F9F9F"/>
<path d="M12 8C6.81417 8 2.55031 11.9474 2.04924 17.0014C1.99475 17.551 2.44772 18 3 18H21C21.5523 18 22.0053 17.551 21.9508 17.0014C21.4497 11.9474 17.1858 8 12 8Z" fill="black"/>
<path d="M8 15C7.44772 15 7 14.5523 7 14C7 13.4477 7.44772 13 8 13C8.55228 13 9 13.4477 9 14C9 14.5523 8.55228 15 8 15Z" fill="#9F9F9F"/>
<path d="M16 15C15.4477 15 15 14.5523 15 14C15 13.4477 15.4477 13 16 13C16.5523 13 17 13.4477 17 14C17 14.5523 16.5523 15 16 15Z" fill="#9F9F9F"/>
</svg>
