<svg width="24" height="24" viewBox="0 0 24 24" fill="none" xmlns="http://www.w3.org/2000/svg">
<path d="M12.0828 7L20.6601 7C17.8987 2.21709 11.7828 0.578349 6.99986 3.33977C6.09467 3.86238 5.3021 4.50513 4.63066 5.23626L7.40156 10.0356C7.81142 9.07421 8.52501 8.23274 9.49981 7.66994C10.3144 7.19965 11.2063 6.98461 12.0828 7Z" fill="black"/>
<path d="M9.82818 21.7614C7.1902 21.1738 4.79744 19.5251 3.3396 17C1.4889 13.7945 1.6146 9.99029 3.33862 6.99839L7.66264 14.4878L7.66968 14.5001C8.7015 16.2872 10.67 17.1964 12.5971 16.9656L9.82818 21.7614Z" fill="black"/>
<path d="M11.9989 22.0017C13.6987 22.0034 15.4218 21.5713 16.9999 20.6603C21.1366 18.2719 22.9213 13.3743 21.5415 8.99999L16.0004 9C16.1186 9.15808 16.2288 9.32486 16.3299 9.50007C17.2724 11.1324 17.1898 13.0752 16.2819 14.5833L11.9989 22.0017Z" fill="black"/>
<circle cx="12" cy="12" r="3" fill="#9F9F9F"/>
</svg>
