<svg width="24" height="24" viewBox="0 0 24 24" fill="none" xmlns="http://www.w3.org/2000/svg">
<path d="M2.80759 9.87864C1.63602 8.70707 1.63602 6.80757 2.80759 5.636L5.63602 2.80757C6.80759 1.636 8.70708 1.636 9.87866 2.80757L21.1924 14.1213C22.3639 15.2929 22.3639 17.1923 21.1924 18.3639L18.3639 21.1924C17.1924 22.3639 15.2929 22.3639 14.1213 21.1924L2.80759 9.87864Z" fill="#9F9F9F"/>
<path d="M15.4202 2.9645C16.5918 1.79292 18.4913 1.79292 19.6628 2.96449L21.077 4.37871C22.2486 5.55028 22.2486 7.44977 21.0771 8.62134L9.32768 20.3708C9.04848 20.65 8.69288 20.8403 8.3057 20.9178L3.29929 21.9191C2.59957 22.059 1.98265 21.4421 2.1226 20.7424L3.12388 15.7359C3.20132 15.3488 3.39162 14.9932 3.67082 14.714L15.4202 2.9645Z" fill="black"/>
</svg>
