<svg width="24" height="24" viewBox="0 0 24 24" fill="none" xmlns="http://www.w3.org/2000/svg">
<path d="M7 12L5.3359 10.8906C4.5013 10.3342 4 9.39751 4 8.39445V7C4 6.44772 4.44772 6 5 6H19C19.5523 6 20 6.44772 20 7V8.39445C20 9.39751 19.4987 10.3342 18.6641 10.8906L17 12V19C17 20.6569 15.6569 22 14 22H10C8.34315 22 7 20.6569 7 19V12Z" fill="black"/>
<path fill-rule="evenodd" clip-rule="evenodd" d="M12 13C12.5523 13 13 13.4477 13 14V16C13 16.5523 12.5523 17 12 17C11.4477 17 11 16.5523 11 16V14C11 13.4477 11.4477 13 12 13Z" fill="#9F9F9F"/>
<path fill-rule="evenodd" clip-rule="evenodd" d="M12 1C12.5523 1 13 1.44772 13 2V3C13 3.55228 12.5523 4 12 4C11.4477 4 11 3.55228 11 3V2C11 1.44772 11.4477 1 12 1Z" fill="#9F9F9F"/>
<path fill-rule="evenodd" clip-rule="evenodd" d="M7.05278 2.10558C7.54676 1.85859 8.14744 2.05881 8.39443 2.55279L8.89442 3.55279C9.14141 4.04677 8.94119 4.64744 8.44721 4.89443C7.95323 5.14142 7.35256 4.9412 7.10557 4.44722L6.60557 3.44722C6.35858 2.95324 6.55881 2.35257 7.05278 2.10558Z" fill="#9F9F9F"/>
<path fill-rule="evenodd" clip-rule="evenodd" d="M16.9472 2.10558C17.4412 2.35257 17.6414 2.95324 17.3944 3.44722L16.8944 4.44722C16.6474 4.9412 16.0468 5.14142 15.5528 4.89443C15.0588 4.64744 14.8586 4.04677 15.1056 3.55279L15.6056 2.55279C15.8526 2.05881 16.4532 1.85859 16.9472 2.10558Z" fill="#9F9F9F"/>
</svg>
