<svg width="24" height="24" viewBox="0 0 24 24" fill="none" xmlns="http://www.w3.org/2000/svg">
<path fill-rule="evenodd" clip-rule="evenodd" d="M12 22C17.5228 22 22 17.5228 22 12C22 6.47715 17.5228 2 12 2C6.47715 2 2 6.47715 2 12C2 17.5228 6.47715 22 12 22Z" fill="black"/>
<path fill-rule="evenodd" clip-rule="evenodd" d="M12 22C14.0503 22 15.8124 19.5318 16.584 16H21.1679C21.4454 15.365 21.6588 14.6956 21.8 14H16.9C16.9656 13.3538 17 12.6849 17 12C17 11.3151 16.9656 10.6462 16.9 10H21.8C21.6588 9.30439 21.4454 8.635 21.1679 8H16.584C15.8124 4.46819 14.0503 2 12 2C9.94969 2 8.18761 4.46819 7.41605 8H2.83209C2.55465 8.635 2.34124 9.30439 2.20004 10H7.10002C7.03444 10.6462 7.00001 11.3151 7.00001 12C7.00001 12.6849 7.03444 13.3538 7.10002 14H2.20004C2.34124 14.6956 2.55465 15.365 2.83209 16H7.41605C8.18761 19.5318 9.94969 22 12 22ZM14.5298 16C14.3212 16.8293 14.0532 17.5635 13.7467 18.1766C12.9482 19.7737 12.2151 20 12 20C11.785 20 11.0518 19.7737 10.2533 18.1766C9.94677 17.5635 9.67881 16.8293 9.4702 16H14.5298ZM13.7467 5.82336C14.0532 6.43647 14.3212 7.17074 14.5298 8H9.4702C9.67881 7.17074 9.94677 6.43647 10.2533 5.82336C11.0518 4.22632 11.785 4 12 4C12.2151 4 12.9482 4.22632 13.7467 5.82336ZM15 12C15 11.3051 14.9608 10.6359 14.8885 10H9.11146C9.03919 10.6359 9.00001 11.3051 9.00001 12C9.00001 12.6949 9.03919 13.3641 9.11146 14H14.8885C14.9608 13.3641 15 12.6949 15 12Z" fill="#9F9F9F"/>
</svg>
