<svg width="24" height="24" viewBox="0 0 24 24" fill="none" xmlns="http://www.w3.org/2000/svg">
<path d="M22 12C22 15.3137 19.3137 18 16 18C13.7792 18 11.8401 16.7934 10.8027 15H5.41425C5.14903 15 4.89468 14.8946 4.70715 14.7071L2.70694 12.7069C2.31647 12.3165 2.3164 11.6834 2.70677 11.2929L4.70572 9.29305C4.89327 9.10542 5.14769 9 5.41298 9H10.8027C11.8401 7.2066 13.7792 6 16 6C19.3137 6 22 8.68629 22 12Z" fill="black"/>
<path fill-rule="evenodd" clip-rule="evenodd" d="M16 14C17.1046 14 18 13.1046 18 12C18 10.8954 17.1046 10 16 10C14.8954 10 14 10.8954 14 12C14 13.1046 14.8954 14 16 14Z" fill="#9F9F9F"/>
</svg>
