<svg width="28" height="28" viewBox="0 0 28 28" fill="none" xmlns="http://www.w3.org/2000/svg">
<path fill-rule="evenodd" clip-rule="evenodd" d="M9.44444 2.58667H17.8889C19.3139 2.58667 20 3.58097 20 5.12V22.3467C20 23.8857 19.3139 24.88 17.8889 24.88H9.44444C8.01941 24.88 7.33333 23.8857 7.33333 22.3467V5.12C7.33333 3.58097 8.01941 2.58667 9.44444 2.58667ZM8.74089 5.62662V20.8266H18.5927V5.62662H8.74089ZM14.6798 22.8535C14.6798 23.4132 14.2262 23.8668 13.6665 23.8668C13.1069 23.8668 12.6532 23.4132 12.6532 22.8535C12.6532 22.2939 13.1069 21.8402 13.6665 21.8402C14.2262 21.8402 14.6798 22.2939 14.6798 22.8535Z" fill="#858D96"/>
</svg>
