<svg width="24" height="24" viewBox="0 0 24 24" fill="none" xmlns="http://www.w3.org/2000/svg">
<path fill-rule="evenodd" clip-rule="evenodd" d="M6 4C5.44772 4 5 4.44772 5 5V19C5 19.5523 5.44772 20 6 20H18C18.5523 20 19 19.5523 19 19V12C19 11.4477 19.4477 11 20 11C20.5523 11 21 11.4477 21 12V19C21 20.6569 19.6569 22 18 22H6C4.34315 22 3 20.6569 3 19V5C3 3.34315 4.34315 2 6 2H12C12.5523 2 13 2.44772 13 3C13 3.55228 12.5523 4 12 4H6Z" fill="#9F9F9F"/>
<path d="M15.6066 4.12132L14.2574 5.47055L18.5 9.71319L19.8492 8.36397C21.0208 7.19239 21.0208 5.2929 19.8492 4.12133C18.6777 2.94975 16.7782 2.94975 15.6066 4.12132Z" fill="#9F9F9F"/>
<path d="M8.44123 16.6607L11.7411 16.1893C11.9553 16.1587 12.1538 16.0594 12.3068 15.9064L18.5 9.71321L14.2574 5.47057L8.06411 11.6638C7.91111 11.8168 7.81187 12.0153 7.78127 12.2295L7.30986 15.5293C7.21558 16.1893 7.78127 16.755 8.44123 16.6607Z" fill="black"/>
</svg>
