<svg width="24" height="24" viewBox="0 0 24 24" fill="none" xmlns="http://www.w3.org/2000/svg">
<path d="M14.1212 2.80757C15.2928 1.636 17.1923 1.636 18.3639 2.80757L21.1923 5.636C22.3639 6.80757 22.3639 8.70707 21.1923 9.87864L9.8786 21.1923C8.70703 22.3639 6.80753 22.3639 5.63596 21.1923L2.80753 18.3639C1.63596 17.1923 1.63596 15.2929 2.80753 14.1213L14.1212 2.80757Z" fill="black"/>
<path fill-rule="evenodd" clip-rule="evenodd" d="M14.8283 7.75729L11.9999 4.92886L13.4141 3.51465L16.2425 6.34308C16.633 6.7336 16.633 7.36676 16.2425 7.75729C15.852 8.14781 15.2188 8.14781 14.8283 7.75729Z" fill="#9F9F9F"/>
<path fill-rule="evenodd" clip-rule="evenodd" d="M9.17145 13.4141L6.34303 10.5857L7.75724 9.1715L10.5857 11.9999C10.9762 12.3905 10.9762 13.0236 10.5857 13.4141C10.1951 13.8047 9.56198 13.8047 9.17145 13.4141Z" fill="#9F9F9F"/>
<path fill-rule="evenodd" clip-rule="evenodd" d="M11.2928 9.87861L9.17145 7.75729L10.5857 6.34308L12.707 8.4644C13.0975 8.85492 13.0975 9.48808 12.707 9.87861C12.3165 10.2691 11.6833 10.2691 11.2928 9.87861Z" fill="#9F9F9F"/>
<path fill-rule="evenodd" clip-rule="evenodd" d="M5.63592 15.5355L3.5146 13.4141L4.92881 11.9999L7.05013 14.1212C7.44066 14.5118 7.44066 15.1449 7.05013 15.5355C6.65961 15.926 6.02644 15.926 5.63592 15.5355Z" fill="#9F9F9F"/>
</svg>
