<svg width="24" height="24" viewBox="0 0 24 24" fill="none" xmlns="http://www.w3.org/2000/svg">
<path fill-rule="evenodd" clip-rule="evenodd" d="M17.415 2.79071C17.8933 3.06686 18.0572 3.67845 17.781 4.15674L9.03105 19.3122C8.75491 19.7905 8.14332 19.9544 7.66502 19.6782C7.18673 19.4021 7.02286 18.7905 7.299 18.3122L16.049 3.15674C16.3251 2.67845 16.9367 2.51457 17.415 2.79071Z" fill="#9F9F9F"/>
<path fill-rule="evenodd" clip-rule="evenodd" d="M5.24996 18.8612C5.9674 19.2754 6.88478 19.0296 7.299 18.3122C7.71321 17.5947 7.4674 16.6773 6.74996 16.2631C6.03252 15.8489 5.11513 16.0947 4.70092 16.8122C4.28671 17.5296 4.53252 18.447 5.24996 18.8612ZM4.24996 20.5932C5.92398 21.5597 8.06455 20.9862 9.03105 19.3122C9.99755 17.6381 9.42398 15.4976 7.74996 14.5311C6.07593 13.5646 3.93537 14.1381 2.96887 15.8122C2.00237 17.4862 2.57593 19.6267 4.24996 20.5932Z" fill="black"/>
<path fill-rule="evenodd" clip-rule="evenodd" d="M6.58494 2.79071C6.10664 3.06685 5.94277 3.67844 6.21891 4.15673L14.9689 19.3122C15.2451 19.7905 15.8566 19.9543 16.3349 19.6782C16.8132 19.4021 16.9771 18.7905 16.701 18.3122L7.95096 3.15673C7.67482 2.67844 7.06323 2.51457 6.58494 2.79071Z" fill="#9F9F9F"/>
<path fill-rule="evenodd" clip-rule="evenodd" d="M18.75 18.8612C18.0326 19.2754 17.1152 19.0296 16.701 18.3122C16.2867 17.5947 16.5326 16.6773 17.25 16.2631C17.9674 15.8489 18.8848 16.0947 19.299 16.8121C19.7132 17.5296 19.4674 18.447 18.75 18.8612ZM19.75 20.5932C18.076 21.5597 15.9354 20.9862 14.9689 19.3122C14.0024 17.6381 14.576 15.4976 16.25 14.5311C17.924 13.5646 20.0646 14.1381 21.0311 15.8121C21.9976 17.4862 21.424 19.6267 19.75 20.5932Z" fill="black"/>
</svg>
