<svg width="24" height="24" viewBox="0 0 24 24" fill="none" xmlns="http://www.w3.org/2000/svg">
<circle cx="12" cy="12" r="10" fill="black"/>
<path fill-rule="evenodd" clip-rule="evenodd" d="M7.01567 13.0836C7.52176 12.8625 8.11128 13.0935 8.3324 13.5996C8.95056 15.0144 10.3613 16 12 16C13.6387 16 15.0494 15.0144 15.6676 13.5996C15.8887 13.0935 16.4782 12.8625 16.9843 13.0836C17.4904 13.3048 17.7214 13.8943 17.5003 14.4004C16.5754 16.5174 14.4619 18 12 18C9.53806 18 7.42464 16.5174 6.49969 14.4004C6.27857 13.8943 6.50958 13.3048 7.01567 13.0836Z" fill="#9F9F9F"/>
<circle cx="8" cy="9" r="1" fill="#9F9F9F"/>
<circle cx="16" cy="9" r="1" fill="#9F9F9F"/>
</svg>
