<svg width="24" height="24" viewBox="0 0 24 24" fill="none" xmlns="http://www.w3.org/2000/svg">
<path fill-rule="evenodd" clip-rule="evenodd" d="M12 17.5C15.0376 17.5 17.5 15.0376 17.5 12C17.5 8.96243 15.0376 6.5 12 6.5C8.96243 6.5 6.5 8.96243 6.5 12C6.5 15.0376 8.96243 17.5 12 17.5Z" fill="black"/>
<path fill-rule="evenodd" clip-rule="evenodd" d="M11.9952 2C12.5475 2 12.9952 2.44772 12.9952 3V4C12.9952 4.55228 12.5475 5 11.9952 5C11.4429 5 10.9952 4.55228 10.9952 4V3C10.9952 2.44772 11.4429 2 11.9952 2Z" fill="#9F9F9F"/>
<path fill-rule="evenodd" clip-rule="evenodd" d="M11.9952 18.9996C12.5475 18.9996 12.9952 19.4473 12.9952 19.9996V20.9964C12.9952 21.5487 12.5475 21.9964 11.9952 21.9964C11.4429 21.9964 10.9952 21.5487 10.9952 20.9964V19.9996C10.9952 19.4473 11.4429 18.9996 11.9952 18.9996Z" fill="#9F9F9F"/>
<path fill-rule="evenodd" clip-rule="evenodd" d="M4.92538 4.92842C5.3159 4.5379 5.94907 4.5379 6.33959 4.92842L7.20406 5.79289C7.59459 6.18342 7.59459 6.81658 7.20406 7.20711C6.81354 7.59763 6.18037 7.59763 5.78985 7.20711L4.92538 6.34264C4.53485 5.95211 4.53485 5.31895 4.92538 4.92842Z" fill="#9F9F9F"/>
<path fill-rule="evenodd" clip-rule="evenodd" d="M16.7929 16.796C17.1835 16.4055 17.8166 16.4055 18.2071 16.796L19.065 17.6538C19.4555 18.0444 19.4555 18.6775 19.0649 19.0681C18.6744 19.4586 18.0412 19.4586 17.6507 19.068L16.7929 18.2102C16.4024 17.8197 16.4024 17.1865 16.7929 16.796Z" fill="#9F9F9F"/>
<path fill-rule="evenodd" clip-rule="evenodd" d="M1.99695 11.9982C1.99695 11.4459 2.44466 10.9982 2.99695 10.9982H3.99695C4.54923 10.9982 4.99695 11.4459 4.99695 11.9982C4.99695 12.5505 4.54923 12.9982 3.99695 12.9982H2.99695C2.44466 12.9982 1.99695 12.5505 1.99695 11.9982Z" fill="#9F9F9F"/>
<path fill-rule="evenodd" clip-rule="evenodd" d="M18.9966 11.9982C18.9966 11.4459 19.4443 10.9982 19.9966 10.9982H20.9934C21.5456 10.9982 21.9934 11.4459 21.9934 11.9982C21.9934 12.5505 21.5456 12.9982 20.9934 12.9982H19.9966C19.4443 12.9982 18.9966 12.5505 18.9966 11.9982Z" fill="#9F9F9F"/>
<path fill-rule="evenodd" clip-rule="evenodd" d="M4.92536 19.068C4.53484 18.6775 4.53484 18.0443 4.92536 17.6538L5.78629 16.7929C6.17682 16.4024 6.80998 16.4024 7.20051 16.7929C7.59103 17.1834 7.59103 17.8166 7.20051 18.2071L6.33958 19.068C5.94905 19.4585 5.31589 19.4585 4.92536 19.068Z" fill="#9F9F9F"/>
<path fill-rule="evenodd" clip-rule="evenodd" d="M16.7862 7.2071C16.3957 6.81656 16.3957 6.1834 16.7863 5.79288L17.6508 4.92839C18.0413 4.53787 18.6745 4.53788 19.065 4.92841C19.4555 5.31894 19.4555 5.95211 19.065 6.34263L18.2004 7.20712C17.8099 7.59764 17.1768 7.59763 16.7862 7.2071Z" fill="#9F9F9F"/>
</svg>
