<svg width="24" height="24" viewBox="0 0 24 24" fill="none" xmlns="http://www.w3.org/2000/svg">
<path d="M14 1C14.5523 1 15 1.44772 15 2H18C19.6569 2 21 3.34315 21 5V15C21 16.6569 19.6569 18 18 18H6C4.34315 18 3 16.6569 3 15V5C3 3.34315 4.34315 2 6 2H9C9 1.44772 9.44772 1 10 1H14Z" fill="black"/>
<circle cx="6" cy="15" r="1" fill="#9F9F9F"/>
<circle cx="18" cy="15" r="1" fill="#9F9F9F"/>
<path fill-rule="evenodd" clip-rule="evenodd" d="M8.23607 21C7.85729 21 7.51102 21.214 7.34164 21.5528L6.89446 22.4472C6.64747 22.9412 6.0468 23.1414 5.55282 22.8944C5.05884 22.6475 4.85861 22.0468 5.10559 21.5528L5.55277 20.6584C6.06093 19.642 7.09974 19 8.23607 19H15.7639C16.9003 19 17.939 19.642 18.4472 20.6583L18.8944 21.5528C19.1414 22.0468 18.9412 22.6474 18.4472 22.8944C17.9533 23.1414 17.3526 22.9412 17.1056 22.4472L16.6584 21.5528C16.489 21.214 16.1427 21 15.7639 21H8.23607Z" fill="#9F9F9F"/>
<path d="M5 5C5 4.44772 5.44772 4 6 4H18C18.5523 4 19 4.44772 19 5V9C19 9.55228 18.5523 10 18 10H6C5.44772 10 5 9.55228 5 9V5Z" fill="#9F9F9F"/>
</svg>
