<svg width="24" height="24" viewBox="0 0 24 24" fill="none" xmlns="http://www.w3.org/2000/svg">
<path d="M20.1065 8.63423C20.0826 8.41077 20.0546 8.23168 20.0316 8.10405L21.916 5.27735C22.0345 5.09962 22.027 4.86625 21.8974 4.6965C21.7677 4.52675 21.5445 4.45811 21.3419 4.52566L18.7212 5.39922C18.5827 5.19265 18.3773 4.92019 18.1036 4.64645C17.5491 4.09195 16.6794 3.5 15.5 3.5C14.2774 3.5 13.3726 3.84218 12.7266 4.40395C12.0872 4.95995 11.7499 5.68869 11.5774 6.37873C11.4051 7.06789 11.3898 7.74611 11.4147 8.24372C11.4219 8.38883 11.4327 8.52017 11.4444 8.63384C10.1892 8.90075 8.87588 8.49188 7.58931 7.72835C6.17061 6.88641 4.87011 5.66301 3.85355 4.64645C3.71256 4.50546 3.50128 4.46171 3.3159 4.53513C3.13051 4.60855 3.00647 4.78509 3.00024 4.98438C2.87284 9.0612 3.71335 13.9958 7.51116 16.498C5.91377 17.3622 4.34763 17.7652 2.43798 18.0039C2.21935 18.0312 2.04438 18.1984 2.00718 18.4156C1.96998 18.6328 2.07932 18.8487 2.27639 18.9472C7.43509 21.5266 14.1199 21.3401 17.9 16.3C19.467 14.2107 19.9921 12.1159 20.1233 10.5415C20.1888 9.7552 20.1562 9.09808 20.1065 8.63423Z" fill="black"/>
</svg>
